<svg xmlns="http://www.w3.org/2000/svg">
    <symbol viewBox="0 0 17.47 17.47" id="icon-facebook">
        <path class="cls-1" d="M8.73,0a8.74,8.74,0,1,0,8.74,8.73A8.73,8.73,0,0,0,8.73,0m2.59,5.14H10.1c-.43,0-.52.17-.52.62V6.84h1.74l-.17,1.89H9.58v5.65H7.32V8.75H6.15V6.84H7.32V5.33c0-1.42.76-2.16,2.44-2.16h1.56Z"/>
    </symbol>
    <symbol viewBox="0 0 17.47 17.47" id="icon-twitter">
        <path class="cls-1" d="M8.73,0a8.74,8.74,0,1,0,8.74,8.73A8.73,8.73,0,0,0,8.73,0m4.4,7.23a5.77,5.77,0,0,1-8.87,5.11,4,4,0,0,0,3-.84,2,2,0,0,1-1.89-1.4,2,2,0,0,0,.92,0,2,2,0,0,1-1.63-2,2,2,0,0,0,.92.26A2,2,0,0,1,5,5.6,5.76,5.76,0,0,0,9.13,7.72a2,2,0,0,1,2-2.49,2,2,0,0,1,1.48.64,4,4,0,0,0,1.28-.49A2,2,0,0,1,13,6.5a4.23,4.23,0,0,0,1.17-.32,4.2,4.2,0,0,1-1,1.05"/>
    </symbol>
    <symbol viewBox="0 0 17.47 17.47" id="icon-instagram">
        <path class="cls-1" d="M12.89,4.92V6a.32.32,0,0,1-.32.32H11.52A.31.31,0,0,1,11.21,6V4.92a.31.31,0,0,1,.31-.31h1.05a.32.32,0,0,1,.32.31m-4,5.29A1.43,1.43,0,1,0,7.43,8.78a1.43,1.43,0,0,0,1.43,1.43m8.61-1.48A8.74,8.74,0,1,1,8.73,0a8.74,8.74,0,0,1,8.74,8.73m-3.7-1.41H10.9a2.45,2.45,0,0,1,.47,1.46,2.52,2.52,0,0,1-5,0,2.45,2.45,0,0,1,.47-1.46H4v4.41a1.94,1.94,0,0,0,1.94,1.94h5.94a1.94,1.94,0,0,0,1.94-1.94ZM8.86,10.71A1.93,1.93,0,0,0,9.65,7,1.85,1.85,0,0,0,8.06,7a1.93,1.93,0,0,0,.8,3.69m4.91-5A1.94,1.94,0,0,0,11.83,3.8H6.52V6.25h-.4V3.8H5.85V6.25h-.4V3.85a1.31,1.31,0,0,0-.28.09V6.25h-.4V4.15A1.94,1.94,0,0,0,4,5.74V7H7.07a2.45,2.45,0,0,1,1.79-.75A2.48,2.48,0,0,1,10.65,7h3.12Z"/>
    </symbol>
    <symbol viewBox="0 0 17.47 17.47" id="icon-youtube">
        <path class="cls-1" d="M17.47,8.73a8.74,8.74,0,1,0-8.74,8.74,8.73,8.73,0,0,0,8.74-8.74M7.77,3.15,7,5.63v1.7H6.39V5.63A11.24,11.24,0,0,0,6,4.31c-.13-.38-.27-.77-.4-1.16h.66l.44,1.64.43-1.64ZM9.44,6.32a1.21,1.21,0,0,1-.18.73A.83.83,0,0,1,8,7.05a1.21,1.21,0,0,1-.18-.73V5.23A1.19,1.19,0,0,1,8,4.5a.74.74,0,0,1,.66-.32.73.73,0,0,1,.65.32,1.19,1.19,0,0,1,.18.73Zm2.08,1H11V7a.94.94,0,0,1-.65.38A.35.35,0,0,1,10,7.14a1.7,1.7,0,0,1,0-.47V4.22h.56V6.5a.82.82,0,0,0,0,.22c0,.09.06.14.13.14s.23-.09.36-.27V4.22h.56Zm1.83,3.77a9.92,9.92,0,0,1-.16,2.18,1.19,1.19,0,0,1-1,.91,33.24,33.24,0,0,1-3.46.12,33,33,0,0,1-3.45-.12,1.18,1.18,0,0,1-1-.91,9.92,9.92,0,0,1-.16-2.18,9.92,9.92,0,0,1,.16-2.18,1.19,1.19,0,0,1,1-.91,30.52,30.52,0,0,1,3.45-.13A30.61,30.61,0,0,1,12.19,8a1.19,1.19,0,0,1,1,.91,9.92,9.92,0,0,1,.16,2.18m-.7,1.37c0-.06,0-.18,0-.36V12h-.57c0,.22,0,.35,0,.38a.23.23,0,0,1-.25.22c-.19,0-.29-.14-.29-.43v-.54h1.12V11a1.23,1.23,0,0,0-.17-.72.85.85,0,0,0-1.33,0A1.16,1.16,0,0,0,11,11V12.1a1.15,1.15,0,0,0,.18.72.79.79,0,0,0,.67.32.78.78,0,0,0,.68-.34.88.88,0,0,0,.13-.33m-1.11-1.28v-.28c0-.29.1-.43.28-.43s.28.14.28.43v.28Zm-1,1.6a2.27,2.27,0,0,0,.06-.62V11a2.22,2.22,0,0,0-.06-.62.45.45,0,0,0-.45-.35.75.75,0,0,0-.57.33V9H8.92V13.1h.56v-.3a.74.74,0,0,0,.57.34.45.45,0,0,0,.45-.35m-.5-.57c0,.27-.08.41-.25.41a.36.36,0,0,1-.27-.14V10.62a.4.4,0,0,1,.27-.14c.17,0,.25.14.25.42Zm-2.12.88h.56V10H7.88v2.35c-.12.17-.24.26-.35.26s-.12,0-.14-.13V10H6.83v2.43a1.62,1.62,0,0,0,0,.46.35.35,0,0,0,.36.23.9.9,0,0,0,.64-.38ZM6.08,9.55h.67V9H4.81v.59h.65V13.1h.62Zm2.8-3.13V5.12c0-.29-.09-.43-.27-.43s-.27.14-.27.43v1.3c0,.29.08.44.27.44s.27-.15.27-.44"/>
    </symbol>
    <symbol viewBox="0 0 512 512" id="icon-search">
        <path d="M508.5 468.9L387.1 347.5c-2.3-2.3-5.3-3.5-8.5-3.5h-13.2c31.5-36.5 50.6-84 50.6-136C416 93.1 322.9 0 208 0S0 93.1 0 208s93.1 208 208 208c52 0 99.5-19.1 136-50.6v13.2c0 3.2 1.3 6.2 3.5 8.5l121.4 121.4c4.7 4.7 12.3 4.7 17 0l22.6-22.6c4.7-4.7 4.7-12.3 0-17zM208 368c-88.4 0-160-71.6-160-160S119.6 48 208 48s160 71.6 160 160-71.6 160-160 160z"/>
    </symbol>
    <symbol viewBox="0 0 51.63 45.69" id="icon-arrow">
        <polygon class="cls-1" points="24.88 45.7 28.79 45.7 51.63 22.85 28.79 0 24.88 0 46.32 21.49 0 21.49 0 24.26 46.32 24.26 24.88 45.7"/>
    </symbol>
    <symbol viewBox="0 0 320 512" id="icon-times">
        <path d="M207.6 256l107.72-107.72c6.23-6.23 6.23-16.34 0-22.58l-25.03-25.03c-6.23-6.23-16.34-6.23-22.58 0L160 208.4 52.28 100.68c-6.23-6.23-16.34-6.23-22.58 0L4.68 125.7c-6.23 6.23-6.23 16.34 0 22.58L112.4 256 4.68 363.72c-6.23 6.23-6.23 16.34 0 22.58l25.03 25.03c6.23 6.23 16.34 6.23 22.58 0L160 303.6l107.72 107.72c6.23 6.23 16.34 6.23 22.58 0l25.03-25.03c6.23-6.23 6.23-16.34 0-22.58L207.6 256z"/>
    </symbol>
</svg>